<?xml version="1.0" encoding="UTF-8" standalone="no"?>
<!-- Generator: Adobe Illustrator 19.0.0, SVG Export Plug-In . SVG Version: 6.00 Build 0)  -->

<svg
   version="1.1"
   id="Layer_1"
   x="0px"
   y="0px"
   viewBox="0 0 1999.9999 1999.9999"
   xml:space="preserve"
   sodipodi:docname="moon.svg"
   inkscape:version="1.1 (c4e8f9ed74, 2021-05-24)"
   width="2000"
   height="2000"
   xmlns:inkscape="http://www.inkscape.org/namespaces/inkscape"
   xmlns:sodipodi="http://sodipodi.sourceforge.net/DTD/sodipodi-0.dtd"
   xmlns="http://www.w3.org/2000/svg"
   xmlns:svg="http://www.w3.org/2000/svg"><defs
   id="defs41" /><sodipodi:namedview
   id="namedview39"
   pagecolor="#ffffff"
   bordercolor="#666666"
   borderopacity="1.0"
   inkscape:pageshadow="2"
   inkscape:pageopacity="0.0"
   inkscape:pagecheckerboard="0"
   showgrid="false"
   inkscape:zoom="1.1942365"
   inkscape:cx="66.988406"
   inkscape:cy="169.98308"
   inkscape:window-width="1920"
   inkscape:window-height="1038"
   inkscape:window-x="1920"
   inkscape:window-y="42"
   inkscape:window-maximized="1"
   inkscape:current-layer="Layer_1" />
<g
   id="g6"
   transform="matrix(3.9049889,0,0,3.9058226,-2.348125e-5,-0.21471397)"
   style="fill:#d8dee9;fill-opacity:1">
	<g
   id="g4"
   style="fill:#d8dee9;fill-opacity:1">
		<path
   d="m 503.536,289.135 c -6.827,-5.227 -16.384,-5.653 -23.829,-1.408 -2.219,1.259 -4.416,2.539 -6.699,3.712 -50.709,26.624 -108.437,31.403 -162.517,13.419 C 254.022,286.085 208.304,245.103 181.723,189.487 157.595,139.055 152.07,81.242 166.171,26.735 168.347,18.415 165.296,9.626 158.47,4.42 151.665,-0.785 142.385,-1.383 134.897,2.884 12.186,73.305 -34.939,230.937 27.589,361.753 c 31.659,66.176 86.293,114.987 153.856,137.451 25.963,8.619 52.629,12.907 79.168,12.907 40.064,0 79.851,-9.749 116.608,-29.013 66.027,-34.624 114.965,-97.259 134.293,-171.84 2.155,-8.299 -1.173,-16.918 -7.978,-22.123 z"
   id="path2"
   style="fill:#d8dee9;fill-opacity:1" />
	</g>
</g>
<g
   id="g8"
   transform="translate(-128,-128)">
</g>
<g
   id="g10"
   transform="translate(-128,-128)">
</g>
<g
   id="g12"
   transform="translate(-128,-128)">
</g>
<g
   id="g14"
   transform="translate(-128,-128)">
</g>
<g
   id="g16"
   transform="translate(-128,-128)">
</g>
<g
   id="g18"
   transform="translate(-128,-128)">
</g>
<g
   id="g20"
   transform="translate(-128,-128)">
</g>
<g
   id="g22"
   transform="translate(-128,-128)">
</g>
<g
   id="g24"
   transform="translate(-128,-128)">
</g>
<g
   id="g26"
   transform="translate(-128,-128)">
</g>
<g
   id="g28"
   transform="translate(-128,-128)">
</g>
<g
   id="g30"
   transform="translate(-128,-128)">
</g>
<g
   id="g32"
   transform="translate(-128,-128)">
</g>
<g
   id="g34"
   transform="translate(-128,-128)">
</g>
<g
   id="g36"
   transform="translate(-128,-128)">
</g>
</svg>
