<?xml version="1.0" encoding="UTF-8" standalone="no"?>
<!-- Generator: Adobe Illustrator 18.0.0, SVG Export Plug-In . SVG Version: 6.00 Build 0)  -->

<svg
   version="1.1"
   id="Capa_1"
   x="0px"
   y="0px"
   viewBox="0 0 1999.9999 1999.9999"
   xml:space="preserve"
   sodipodi:docname="web.svg"
   width="2000"
   height="2000"
   inkscape:version="1.1 (c4e8f9ed74, 2021-05-24)"
   xmlns:inkscape="http://www.inkscape.org/namespaces/inkscape"
   xmlns:sodipodi="http://sodipodi.sourceforge.net/DTD/sodipodi-0.dtd"
   xmlns="http://www.w3.org/2000/svg"
   xmlns:svg="http://www.w3.org/2000/svg"><defs
   id="defs37" /><sodipodi:namedview
   id="namedview35"
   pagecolor="#ffffff"
   bordercolor="#666666"
   borderopacity="1.0"
   inkscape:pageshadow="2"
   inkscape:pageopacity="0.0"
   inkscape:pagecheckerboard="0"
   showgrid="false"
   width="200px"
   inkscape:zoom="0.18266331"
   inkscape:cx="525.55711"
   inkscape:cy="1023.7415"
   inkscape:window-width="1920"
   inkscape:window-height="1038"
   inkscape:window-x="1920"
   inkscape:window-y="42"
   inkscape:window-maximized="1"
   inkscape:current-layer="Capa_1" />
<path
   d="M 1944.342,1328.985 C 1980.3514,1225.9078 2000,1115.214 2000,1000 c 0,-115.21406 -19.6486,-225.90788 -55.658,-328.9851 -0.88,-3.09632 -1.92,-6.1162 -3.1824,-9.0214 C 1802.263,276.43348 1432.831,0 1000,0 567.16902,0 197.72742,276.43348 58.8404,661.9935 c -1.2614,2.91476 -2.31272,5.92508 -3.18238,9.0214 C 19.6485,774.09212 0,884.78594 0,1000 c 0,115.214 19.6485,225.9078 55.65802,328.985 0.8792,3.0964 1.9208,6.1162 3.18238,9.0214 C 197.73698,1723.576 567.16902,2000 1000,2000 c 432.831,0 802.263,-276.4334 941.1596,-661.9934 1.262,-2.9052 2.3032,-5.9156 3.1824,-9.0216 z M 1000,1856.661 c -38.0833,0 -99.4849,-68.922 -150.8042,-222.8976 -24.77088,-74.3024 -44.60096,-159.719 -59.05064,-252.6376 h 419.70964 c -14.4496,92.9186 -34.2798,178.3256 -59.041,252.6376 C 1099.4848,1787.739 1038.0834,1856.661 1000,1856.661 Z M 772.75204,1237.7772 C 765.86168,1161.3436 762.22058,1081.6036 762.22058,1000 c 0,-81.6036 3.6411,-161.34366 10.53146,-237.77714 h 454.48636 c 6.8904,76.43348 10.5314,156.17354 10.5314,237.77714 0,81.6036 -3.641,161.3436 -10.5314,237.7772 z m -629.4116,-237.7676 c 0,-82.47328 11.74514,-162.25158 33.60124,-237.77718 h 452.0303 c -6.69922,78.01032 -10.10138,157.96062 -10.10138,237.77718 0,79.8164 3.3926,159.7668 10.10138,237.7772 h -452.0303 c -21.8561,-75.5352 -33.60124,-155.304 -33.60124,-237.7772 z M 1000,143.34862 c 38.0834,0 99.4944,68.92202 150.8138,222.89756 24.7612,74.30236 44.601,159.71904 59.041,252.62806 H 790.1356 C 804.58528,525.95566 824.41538,440.54854 849.18624,366.24618 900.5151,212.27064 961.9167,143.34862 1000,143.34862 Z m 371.0184,618.8838 h 452.0304 c 21.856,75.5256 33.6012,155.3039 33.6012,237.77718 0,82.4732 -11.7452,162.2514 -33.6012,237.7772 h -452.0304 c 6.6992,-78.0104 10.1014,-157.9608 10.1014,-237.7772 0,-79.81656 -3.4022,-159.76686 -10.1014,-237.77718 z M 1767.0372,618.8838 h -412.4658 c -25.4972,-175.81232 -69.238,-333.54358 -130.6014,-445.75688 237.9132,64.49732 435.0194,229.16666 543.0672,445.75688 z M 776.02042,173.11736 C 714.65706,285.33066 670.9162,443.06192 645.41902,618.8838 H 232.9533 C 341.01052,402.29358 538.1072,237.62424 776.02042,173.11736 Z M 232.9533,1381.1258 h 412.46572 c 25.49718,175.8122 69.23804,333.5436 130.6014,445.7664 C 538.1072,1762.3854 341.01052,1597.7256 232.9533,1381.1258 Z m 991.0167,445.7664 c 61.3634,-112.2134 105.1042,-269.9446 130.6014,-445.7664 h 412.4658 c -108.0478,216.5998 -305.154,381.2596 -543.0672,445.7664 z"
   id="path2"
   style="fill:#d8dee9;fill-opacity:1;stroke-width:9.55662" />
<g
   id="g4"
   transform="translate(-50,-50)">
</g>
<g
   id="g6"
   transform="translate(-50,-50)">
</g>
<g
   id="g8"
   transform="translate(-50,-50)">
</g>
<g
   id="g10"
   transform="translate(-50,-50)">
</g>
<g
   id="g12"
   transform="translate(-50,-50)">
</g>
<g
   id="g14"
   transform="translate(-50,-50)">
</g>
<g
   id="g16"
   transform="translate(-50,-50)">
</g>
<g
   id="g18"
   transform="translate(-50,-50)">
</g>
<g
   id="g20"
   transform="translate(-50,-50)">
</g>
<g
   id="g22"
   transform="translate(-50,-50)">
</g>
<g
   id="g24"
   transform="translate(-50,-50)">
</g>
<g
   id="g26"
   transform="translate(-50,-50)">
</g>
<g
   id="g28"
   transform="translate(-50,-50)">
</g>
<g
   id="g30"
   transform="translate(-50,-50)">
</g>
<g
   id="g32"
   transform="translate(-50,-50)">
</g>
</svg>
