<?xml version="1.0" encoding="UTF-8" standalone="no"?>
<!-- Generator: Adobe Illustrator 17.1.0, SVG Export Plug-In . SVG Version: 6.00 Build 0)  -->

<svg
   version="1.1"
   id="Capa_1"
   x="0px"
   y="0px"
   viewBox="0 0 2000.0001 1800.0001"
   xml:space="preserve"
   sodipodi:docname="folder.svg"
   width="2000"
   height="1800"
   inkscape:version="1.1 (c4e8f9ed74, 2021-05-24)"
   xmlns:inkscape="http://www.inkscape.org/namespaces/inkscape"
   xmlns:sodipodi="http://sodipodi.sourceforge.net/DTD/sodipodi-0.dtd"
   xmlns="http://www.w3.org/2000/svg"
   xmlns:svg="http://www.w3.org/2000/svg"><defs
   id="defs37" /><sodipodi:namedview
   id="namedview35"
   pagecolor="#ffffff"
   bordercolor="#666666"
   borderopacity="1.0"
   inkscape:pageshadow="2"
   inkscape:pageopacity="0.0"
   inkscape:pagecheckerboard="0"
   showgrid="false"
   inkscape:zoom="0.25"
   inkscape:cx="900"
   inkscape:cy="550"
   inkscape:window-width="1916"
   inkscape:window-height="1007"
   inkscape:window-x="1920"
   inkscape:window-y="42"
   inkscape:window-maximized="1"
   inkscape:current-layer="Capa_1" />
<path
   d="M 74.678018,587.94269 H 1925.3225 c 21.1876,0 40.7275,8.78295 55.0389,24.71169 14.3115,15.92872 21.188,36.57907 19.3449,58.11586 l -90.5828,1059.65336 c -3.394,39.6636 -35.358,69.5764 -74.3754,69.5764 H 189.63923 c -38.1136,0 -70.00638,-29.1619 -74.20677,-67.8125 L 0.47101968,672.53409 C -1.894991,650.70783 4.7068204,629.68663 19.053818,613.32372 33.409622,596.9518 53.162027,587.94269 74.678018,587.94269 Z M 1900.9265,452.26359 V 284.6095 c 0,-37.47455 -22.3669,-67.52295 -59.0804,-67.52295 H 1103.3837 V 195.91158 C 1103.3837,85.387363 1030.9315,0 932.79822,0 H 269.65944 C 171.52622,0 84.301628,85.387363 84.301628,195.91158 v 225.68855 c 0,11.13476 6.025795,21.51873 11.227602,30.66349 z"
   id="path2"
   style="fill:#d8dee9;fill-opacity:1;stroke-width:8.95295" />
<g
   id="g4"
   transform="translate(-6.6049531e-4,-9.9245282)">
</g>
<g
   id="g6"
   transform="translate(-6.6049531e-4,-9.9245282)">
</g>
<g
   id="g8"
   transform="translate(-6.6049531e-4,-9.9245282)">
</g>
<g
   id="g10"
   transform="translate(-6.6049531e-4,-9.9245282)">
</g>
<g
   id="g12"
   transform="translate(-6.6049531e-4,-9.9245282)">
</g>
<g
   id="g14"
   transform="translate(-6.6049531e-4,-9.9245282)">
</g>
<g
   id="g16"
   transform="translate(-6.6049531e-4,-9.9245282)">
</g>
<g
   id="g18"
   transform="translate(-6.6049531e-4,-9.9245282)">
</g>
<g
   id="g20"
   transform="translate(-6.6049531e-4,-9.9245282)">
</g>
<g
   id="g22"
   transform="translate(-6.6049531e-4,-9.9245282)">
</g>
<g
   id="g24"
   transform="translate(-6.6049531e-4,-9.9245282)">
</g>
<g
   id="g26"
   transform="translate(-6.6049531e-4,-9.9245282)">
</g>
<g
   id="g28"
   transform="translate(-6.6049531e-4,-9.9245282)">
</g>
<g
   id="g30"
   transform="translate(-6.6049531e-4,-9.9245282)">
</g>
<g
   id="g32"
   transform="translate(-6.6049531e-4,-9.9245282)">
</g>
</svg>
