<?xml version="1.0" encoding="UTF-8" standalone="no"?>
<!-- Generator: Adobe Illustrator 19.1.0, SVG Export Plug-In . SVG Version: 6.00 Build 0)  -->

<svg
   version="1.1"
   id="Capa_1"
   x="0px"
   y="0px"
   viewBox="0 0 1297.0712 2000"
   xml:space="preserve"
   sodipodi:docname="microphone.svg"
   inkscape:version="1.1 (c4e8f9ed74, 2021-05-24)"
   width="1297.0712"
   height="2000"
   xmlns:inkscape="http://www.inkscape.org/namespaces/inkscape"
   xmlns:sodipodi="http://sodipodi.sourceforge.net/DTD/sodipodi-0.dtd"
   xmlns="http://www.w3.org/2000/svg"
   xmlns:svg="http://www.w3.org/2000/svg"><defs
   id="defs40" /><sodipodi:namedview
   id="namedview38"
   pagecolor="#ffffff"
   bordercolor="#666666"
   borderopacity="1.0"
   inkscape:pageshadow="2"
   inkscape:pageopacity="0.0"
   inkscape:pagecheckerboard="0"
   showgrid="false"
   inkscape:zoom="0.31583118"
   inkscape:cx="566.75849"
   inkscape:cy="807.39338"
   inkscape:window-width="1920"
   inkscape:window-height="1038"
   inkscape:window-x="1920"
   inkscape:window-y="42"
   inkscape:window-maximized="1"
   inkscape:current-layer="Capa_1" />
<g
   id="g5"
   style="fill:#d8dee9;fill-opacity:1"
   transform="matrix(4.1841004,0,0,4.1841004,-351.46443,0)">
	<g
   id="XMLID_22_"
   style="fill:#d8dee9;fill-opacity:1">
		<path
   id="XMLID_24_"
   d="m 394,196.1 c 0,-11.9 -9.7,-21.6 -21.6,-21.6 -11.9,0 -21.6,9.7 -21.6,21.6 0,61.7 -50.2,111.8 -111.8,111.8 -61.6,0 -111.8,-50.2 -111.8,-111.8 0,-11.9 -9.7,-21.6 -21.6,-21.6 -11.9,0 -21.6,9.7 -21.6,21.6 0,78.2 58.1,143 133.4,153.5 v 85.2 h -55.6 c -11.9,0 -21.6,9.7 -21.6,21.6 0,11.9 9.7,21.6 21.6,21.6 h 154.5 c 11.9,0 21.6,-9.7 21.6,-21.6 0,-11.9 -9.7,-21.6 -21.6,-21.6 H 260.7 V 349.6 C 335.9,339.1 394,274.2 394,196.1 Z"
   style="fill:#d8dee9;fill-opacity:1" />
		<path
   id="XMLID_23_"
   d="m 239,0 v 0 c -46.4,0 -84,37.6 -84,84 v 110.7 c 0,46.4 37.6,84 84,84 v 0 c 46.4,0 84,-37.6 84,-84 V 84 C 323,37.6 285.4,0 239,0 Z m 0.1,55.9 c -15.1,0 -27.4,12.3 -27.4,27.4 0,0.2 0,0.4 0,0.6 v 0 l -0.2,99.9 c 0,6.9 -5.6,12.4 -12.4,12.4 v 0 c -6.9,0 -12.4,-5.6 -12.4,-12.4 v -100.5 0 -0.1 c 0,-28.9 23.5,-52.4 52.4,-52.4 6.9,0 12.5,5.6 12.5,12.5 0,7 -5.6,12.6 -12.5,12.6 z"
   style="fill:#d8dee9;fill-opacity:1" />
	</g>
</g>
<g
   id="g7"
   transform="translate(-167.99999,-119.5)">
</g>
<g
   id="g9"
   transform="translate(-167.99999,-119.5)">
</g>
<g
   id="g11"
   transform="translate(-167.99999,-119.5)">
</g>
<g
   id="g13"
   transform="translate(-167.99999,-119.5)">
</g>
<g
   id="g15"
   transform="translate(-167.99999,-119.5)">
</g>
<g
   id="g17"
   transform="translate(-167.99999,-119.5)">
</g>
<g
   id="g19"
   transform="translate(-167.99999,-119.5)">
</g>
<g
   id="g21"
   transform="translate(-167.99999,-119.5)">
</g>
<g
   id="g23"
   transform="translate(-167.99999,-119.5)">
</g>
<g
   id="g25"
   transform="translate(-167.99999,-119.5)">
</g>
<g
   id="g27"
   transform="translate(-167.99999,-119.5)">
</g>
<g
   id="g29"
   transform="translate(-167.99999,-119.5)">
</g>
<g
   id="g31"
   transform="translate(-167.99999,-119.5)">
</g>
<g
   id="g33"
   transform="translate(-167.99999,-119.5)">
</g>
<g
   id="g35"
   transform="translate(-167.99999,-119.5)">
</g>
</svg>
