<?xml version="1.0" encoding="UTF-8" standalone="no"?>
<!-- Generator: Adobe Illustrator 18.0.0, SVG Export Plug-In . SVG Version: 6.00 Build 0)  -->

<svg
   version="1.1"
   id="Capa_1"
   x="0px"
   y="0px"
   viewBox="0 0 1284.9125 2000.0001"
   xml:space="preserve"
   sodipodi:docname="musical-note.svg"
   width="1284.9125"
   height="2000.0001"
   inkscape:version="1.1 (c4e8f9ed74, 2021-05-24)"
   xmlns:inkscape="http://www.inkscape.org/namespaces/inkscape"
   xmlns:sodipodi="http://sodipodi.sourceforge.net/DTD/sodipodi-0.dtd"
   xmlns="http://www.w3.org/2000/svg"
   xmlns:svg="http://www.w3.org/2000/svg"><defs
   id="defs37" /><sodipodi:namedview
   id="namedview35"
   pagecolor="#ffffff"
   bordercolor="#666666"
   borderopacity="1.0"
   inkscape:pageshadow="2"
   inkscape:pageopacity="0.0"
   inkscape:pagecheckerboard="0"
   showgrid="false"
   inkscape:zoom="0.29865594"
   inkscape:cx="659.62191"
   inkscape:cy="803.60029"
   inkscape:window-width="1920"
   inkscape:window-height="1038"
   inkscape:window-x="1920"
   inkscape:window-y="42"
   inkscape:window-maximized="1"
   inkscape:current-layer="Capa_1" />
<path
   d="m 923.00932,329.28866 c -68.1005,-52.54749 -161.3706,-124.53259 -161.3706,-163.55307 0,-65.817509 -53.3631,-119.180639 -119.1806,-119.180639 -65.8175,0 -119.18063,53.36313 -119.18063,119.180639 V 1259.1434 c -37.32961,-13.2179 -77.32589,-20.7821 -119.18064,-20.7821 -197.46741,0 -357.541899,160.0745 -357.541899,357.5419 0,197.4674 160.074489,357.5419 357.541899,357.5419 197.46742,0 357.54187,-160.0745 357.54187,-357.5419 V 505.74676 c 5.2663,4.07449 10.5028,8.20484 15.7542,12.26443 C 911.86222,621.74304 1000,697.07265 1000,794.75232 c 0,151.8287 -80.75978,236.55868 -83.07258,238.97208 -47.1956,45.8845 -48.2719,121.3333 -2.3874,168.5289 23.3632,24.0335 54.3948,36.108 85.47118,36.108 29.9255,0 59.8957,-11.203 83.0577,-33.7244 15.9032,-15.4488 155.2886,-158.2272 155.2886,-409.88828 0,-222.1229 -174.8528,-357.04655 -315.34818,-465.45996 z"
   id="path2"
   style="fill:#2e3440;fill-opacity:1;stroke:#d8dee9;stroke-width:93.1099;stroke-miterlimit:4;stroke-dasharray:none;stroke-opacity:1" />
<g
   id="g4"
   transform="translate(-333.49998,-243.49998)">
</g>
<g
   id="g6"
   transform="translate(-333.49998,-243.49998)">
</g>
<g
   id="g8"
   transform="translate(-333.49998,-243.49998)">
</g>
<g
   id="g10"
   transform="translate(-333.49998,-243.49998)">
</g>
<g
   id="g12"
   transform="translate(-333.49998,-243.49998)">
</g>
<g
   id="g14"
   transform="translate(-333.49998,-243.49998)">
</g>
<g
   id="g16"
   transform="translate(-333.49998,-243.49998)">
</g>
<g
   id="g18"
   transform="translate(-333.49998,-243.49998)">
</g>
<g
   id="g20"
   transform="translate(-333.49998,-243.49998)">
</g>
<g
   id="g22"
   transform="translate(-333.49998,-243.49998)">
</g>
<g
   id="g24"
   transform="translate(-333.49998,-243.49998)">
</g>
<g
   id="g26"
   transform="translate(-333.49998,-243.49998)">
</g>
<g
   id="g28"
   transform="translate(-333.49998,-243.49998)">
</g>
<g
   id="g30"
   transform="translate(-333.49998,-243.49998)">
</g>
<g
   id="g32"
   transform="translate(-333.49998,-243.49998)">
</g>
</svg>
