<?xml version="1.0" encoding="UTF-8" standalone="no"?>
<svg
   width="1986.1688"
   height="2000"
   viewBox="0 0 525.50714 529.16664"
   version="1.1"
   id="svg1158"
   inkscape:version="1.1 (c4e8f9ed74, 2021-05-24)"
   sodipodi:docname="QRLinux-logo-nobg.svg"
   xmlns:inkscape="http://www.inkscape.org/namespaces/inkscape"
   xmlns:sodipodi="http://sodipodi.sourceforge.net/DTD/sodipodi-0.dtd"
   xmlns="http://www.w3.org/2000/svg"
   xmlns:svg="http://www.w3.org/2000/svg"
   xmlns:rdf="http://www.w3.org/1999/02/22-rdf-syntax-ns#"
   xmlns:cc="http://creativecommons.org/ns#"
   xmlns:dc="http://purl.org/dc/elements/1.1/">
  <defs
     id="defs1152" />
  <sodipodi:namedview
     id="base"
     pagecolor="#ffffff"
     bordercolor="#666666"
     borderopacity="1.0"
     inkscape:pageopacity="0.0"
     inkscape:pageshadow="2"
     inkscape:zoom="0.25"
     inkscape:cx="632"
     inkscape:cy="1066"
     inkscape:document-units="px"
     inkscape:current-layer="layer1"
     inkscape:document-rotation="0"
     showgrid="false"
     units="px"
     inkscape:window-width="1908"
     inkscape:window-height="999"
     inkscape:window-x="1924"
     inkscape:window-y="46"
     inkscape:window-maximized="0"
     inkscape:pagecheckerboard="0" />
  <metadata
     id="metadata1155">
    <rdf:RDF>
      <cc:Work
         rdf:about="">
        <dc:format>image/svg+xml</dc:format>
        <dc:type
           rdf:resource="http://purl.org/dc/dcmitype/StillImage" />
      </cc:Work>
    </rdf:RDF>
  </metadata>
  <g
     inkscape:label="Ebene 1"
     inkscape:groupmode="layer"
     id="layer1"
     transform="translate(-32.322036,-37.574379)">
    <path
       fill-rule="evenodd"
       clip-rule="evenodd"
       d="m 169.9127,167.48004 c -80.121552,28.00997 -137.590664,104.2451 -137.590664,193.896 0,113.4232 91.971054,205.36498 205.423524,205.36498 91.10012,0 168.35263,-59.28426 195.25737,-141.36727 h 89.15329 c 19.70277,0 35.67296,-15.96285 35.67296,-35.65833 V 73.232771 c 0,-19.695524 -15.97019,-35.658392 -35.67296,-35.658392 H 205.57837 c -19.69554,0 -35.66567,15.962868 -35.66567,35.658392 z m 67.83286,-11.4616 c -23.77223,0 -46.60033,4.03277 -67.83286,11.4616 v 222.23538 c 0,19.69548 15.97013,35.65833 35.66567,35.65833 h 227.42456 c 6.60174,-20.13465 10.17348,-41.65266 10.17348,-63.99771 0,-113.41585 -91.97839,-205.3576 -205.43085,-205.3576 z"
       fill="#C4C4C4"
       id="path8"
       style="fill:#eceff4;fill-opacity:1;stroke-width:0.731901" />
  </g>
</svg>
