<?xml version="1.0" encoding="UTF-8" standalone="no"?>
<svg
   width="2000"
   height="2000"
   viewBox="0 0 529.16664 529.16664"
   version="1.1"
   id="svg1158"
   inkscape:version="1.1 (c4e8f9ed74, 2021-05-24)"
   sodipodi:docname="QRLinux-logo.svg"
   xmlns:inkscape="http://www.inkscape.org/namespaces/inkscape"
   xmlns:sodipodi="http://sodipodi.sourceforge.net/DTD/sodipodi-0.dtd"
   xmlns="http://www.w3.org/2000/svg"
   xmlns:svg="http://www.w3.org/2000/svg"
   xmlns:rdf="http://www.w3.org/1999/02/22-rdf-syntax-ns#"
   xmlns:cc="http://creativecommons.org/ns#">
  <defs
     id="defs1152" />
  <sodipodi:namedview
     id="base"
     pagecolor="#ffffff"
     bordercolor="#666666"
     borderopacity="1.0"
     inkscape:pageopacity="0.0"
     inkscape:pageshadow="2"
     inkscape:zoom="0.25"
     inkscape:cx="448"
     inkscape:cy="1166"
     inkscape:document-units="px"
     inkscape:current-layer="layer1"
     inkscape:document-rotation="0"
     showgrid="false"
     units="px"
     inkscape:window-width="1908"
     inkscape:window-height="999"
     inkscape:window-x="1924"
     inkscape:window-y="46"
     inkscape:window-maximized="0"
     inkscape:pagecheckerboard="0" />
  <metadata
     id="metadata1155">
    <rdf:RDF>
      <cc:Work
         rdf:about="" />
    </rdf:RDF>
  </metadata>
  <g
     inkscape:label="Ebene 1"
     inkscape:groupmode="layer"
     id="layer1"
     transform="translate(-0.2645874,-0.2645874)">
    <circle
       cx="264.8479"
       cy="264.8479"
       fill="#131313"
       id="circle6"
       style="fill:#2e3440;fill-opacity:1;stroke-width:0.35443"
       r="264.58331" />
    <path
       fill-rule="evenodd"
       clip-rule="evenodd"
       d="m 192.36312,209.1986 c -38.79966,13.56411 -66.62965,50.48173 -66.62965,93.89608 0,54.92631 44.5379,99.45004 99.47839,99.45004 44.11614,0 81.52645,-28.709 94.55533,-68.45852 h 43.17338 c 9.54126,0 17.27498,-7.73017 17.27498,-17.2679 V 163.55842 c 0,-9.53775 -7.73372,-17.26793 -17.27498,-17.26793 H 209.63458 c -9.53776,0 -17.27146,7.73018 -17.27146,17.26793 z m 32.84874,-5.55039 c -11.51194,0 -22.56667,1.95291 -32.84874,5.55039 v 107.6197 c 0,9.53773 7.7337,17.2679 17.27146,17.2679 h 110.13261 c 3.19696,-9.7504 4.92661,-20.17071 4.92661,-30.99152 0,-54.92276 -44.54145,-99.44647 -99.48194,-99.44647 z"
       fill="#C4C4C4"
       id="path8"
       style="fill:#eceff4;fill-opacity:1;stroke-width:0.35443" />
  </g>
</svg>
