<?xml version="1.0" encoding="UTF-8" standalone="no"?>
<svg
   width="1986.9592"
   height="1999.9999"
   viewBox="0 0 525.71627 529.16661"
   version="1.1"
   id="svg1158"
   inkscape:version="1.1 (c4e8f9ed74, 2021-05-24)"
   sodipodi:docname="QRLinux-logo-nobg-outline.svg"
   xmlns:inkscape="http://www.inkscape.org/namespaces/inkscape"
   xmlns:sodipodi="http://sodipodi.sourceforge.net/DTD/sodipodi-0.dtd"
   xmlns="http://www.w3.org/2000/svg"
   xmlns:svg="http://www.w3.org/2000/svg"
   xmlns:rdf="http://www.w3.org/1999/02/22-rdf-syntax-ns#"
   xmlns:cc="http://creativecommons.org/ns#"
   xmlns:dc="http://purl.org/dc/elements/1.1/">
  <defs
     id="defs1152" />
  <sodipodi:namedview
     id="base"
     pagecolor="#ffffff"
     bordercolor="#666666"
     borderopacity="1.0"
     inkscape:pageopacity="0.0"
     inkscape:pageshadow="2"
     inkscape:zoom="0.1767767"
     inkscape:cx="1018.2338"
     inkscape:cy="1496.2379"
     inkscape:document-units="px"
     inkscape:current-layer="layer1"
     inkscape:document-rotation="0"
     showgrid="false"
     units="px"
     inkscape:window-width="1908"
     inkscape:window-height="999"
     inkscape:window-x="1924"
     inkscape:window-y="46"
     inkscape:window-maximized="0"
     inkscape:pagecheckerboard="0" />
  <metadata
     id="metadata1155">
    <rdf:RDF>
      <cc:Work
         rdf:about="">
        <dc:format>image/svg+xml</dc:format>
        <dc:type
           rdf:resource="http://purl.org/dc/dcmitype/StillImage" />
      </cc:Work>
    </rdf:RDF>
  </metadata>
  <g
     inkscape:label="Ebene 1"
     inkscape:groupmode="layer"
     id="layer1"
     transform="translate(-30.337675,-35.590018)">
    <path
       fill-rule="evenodd"
       clip-rule="evenodd"
       d="M 175.18621,173.19277 C 99.643762,199.6019 45.459125,271.48005 45.459125,356.00722 c 0,106.94084 86.714725,193.62796 193.683165,193.62796 85.89356,0 158.73094,-55.89604 184.09802,-133.28785 h 84.058 c 18.57672,0 33.63418,-15.05054 33.63418,-33.62038 V 84.331912 c 0,-18.569886 -15.05746,-33.620444 -33.63418,-33.620444 H 208.81352 c -18.56991,0 -33.62731,15.050558 -33.62731,33.620444 z m 63.95608,-10.80655 c -22.4136,0 -43.93704,3.80229 -63.95608,10.80655 v 209.53418 c 0,18.56984 15.0574,33.62038 33.62731,33.62038 h 214.42679 c 6.22443,-18.98392 9.59204,-39.27213 9.59204,-60.34011 0,-106.93391 -86.72164,-193.621 -193.69006,-193.621 z"
       fill="#C4C4C4"
       id="path8"
       style="fill:#eceff4;fill-opacity:1;stroke:#2e3440;stroke-width:30.2429;stroke-miterlimit:4;stroke-dasharray:none;stroke-opacity:1" />
  </g>
</svg>
